<svg width="342" height="342" viewBox="0 0 342 342" fill="none" xmlns="http://www.w3.org/2000/svg">
<g clip-path="url(#clip0_186_266)">
<path d="M0 83.333C0 76.7056 5.37258 71.333 12 71.333H61.3333C67.9607 71.333 73.3333 76.7056 73.3333 83.333V337.333C73.3333 339.542 71.5425 341.333 69.3333 341.333H4.00001C1.79087 341.333 0 339.542 0 337.333V83.333Z" fill="#8E8E93"/>
<path d="M89.332 12C89.332 5.3726 94.7046 0 101.332 0H150.665C157.293 0 162.665 5.37258 162.665 12V337.333C162.665 339.542 160.875 341.333 158.665 341.333H93.332C91.1229 341.333 89.332 339.542 89.332 337.333V12Z" fill="#8E8E93"/>
<rect x="97.332" y="263.333" width="57.3333" height="70" rx="28.6667" fill="white"/>
<g clip-path="url(#clip1_186_266)">
<rect x="119" y="279" width="27" height="37" rx="13.5" fill="#1C1C1E"/>
<circle cx="121" cy="285" r="8" fill="white"/>
</g>
<path d="M178.668 128.333C178.668 121.706 184.041 116.333 190.668 116.333H240.001C246.629 116.333 252.001 121.706 252.001 128.333V337.333C252.001 339.542 250.21 341.333 248.001 341.333H182.668C180.459 341.333 178.668 339.542 178.668 337.333V128.333Z" fill="#8E8E93"/>
<rect x="186.668" y="263.333" width="57.3333" height="70" rx="28.6667" fill="white"/>
<g clip-path="url(#clip2_186_266)">
<rect x="196" y="279" width="27" height="37" rx="13.5" fill="#1C1C1E"/>
<circle cx="198" cy="285" r="8" fill="white"/>
</g>
<path d="M268 63.333C268 56.7056 273.373 51.333 280 51.333H329.333C335.961 51.333 341.333 56.7056 341.333 63.333V337.333C341.333 339.542 339.542 341.333 337.333 341.333H272C269.791 341.333 268 339.542 268 337.333V63.333Z" fill="#8E8E93"/>
</g>
<defs>
<clipPath id="clip0_186_266">
<rect width="341.333" height="341.333" fill="white"/>
</clipPath>
<clipPath id="clip1_186_266">
<rect x="119" y="279" width="27" height="37" rx="13.5" fill="white"/>
</clipPath>
<clipPath id="clip2_186_266">
<rect x="196" y="279" width="27" height="37" rx="13.5" fill="white"/>
</clipPath>
</defs>
</svg>
