<svg width="1000" height="1000" viewBox="0 0 1000 1000" fill="none" xmlns="http://www.w3.org/2000/svg">
<g clip-path="url(#clip0_162_10)">
<rect width="1000" height="1000"/>
<path d="M150 324C150 310.745 160.745 300 174 300H338C351.255 300 362 310.745 362 324V844C362 847.314 359.314 850 356 850H156C152.686 850 150 847.314 150 844V324Z" fill="#FF9500"/>
<path d="M394 174C394 160.745 404.745 150 418 150H582C595.255 150 606 160.745 606 174V844C606 847.314 603.314 850 600 850H400C396.686 850 394 847.314 394 844V174Z" fill="#FF9500"/>
<path d="M638 474C638 460.745 648.745 450 662 450H826C839.255 450 850 460.745 850 474V844C850 847.314 847.314 850 844 850H644C640.686 850 638 847.314 638 844V474Z" fill="#FF9500"/>
<path d="M426.758 336.25C426.758 351.712 430.339 365.628 437.5 377.998C444.661 390.205 454.264 400.459 466.309 408.76C478.353 417.061 492.188 424.71 507.812 431.709C523.438 438.708 539.876 445.381 557.129 451.729C574.382 457.913 591.634 464.424 608.887 471.26C626.139 477.933 642.578 485.99 658.203 495.43C673.828 504.707 687.663 515.205 699.707 526.924C711.751 538.48 721.354 553.047 728.516 570.625C735.677 588.04 739.258 607.572 739.258 629.219C739.258 655.749 733.398 680.488 721.68 703.438C709.961 726.387 693.848 746.081 673.34 762.52C652.995 778.796 628.255 791.572 599.121 800.85C569.987 810.127 538.574 814.766 504.883 814.766C491.862 814.766 478.109 813.87 463.623 812.08C449.3 810.452 434.082 807.604 417.969 803.535C402.018 799.466 386.637 794.502 371.826 788.643C357.015 782.783 342.773 775.378 329.102 766.426C315.592 757.311 303.792 747.22 293.701 736.152C283.61 725.085 275.553 712.064 269.531 697.09C263.672 681.953 260.742 665.84 260.742 648.75C260.742 627.103 268.311 608.711 283.447 593.574C298.747 578.275 317.22 570.625 338.867 570.625C360.514 570.625 378.906 578.275 394.043 593.574C409.342 608.711 416.992 627.103 416.992 648.75C416.992 662.747 413.574 675.687 406.738 687.568C400.065 699.287 390.951 708.646 379.395 715.645C403.809 729.642 435.872 736.641 475.586 736.641C510.905 736.641 537.598 731.188 555.664 720.283C573.893 709.378 583.008 692.044 583.008 668.281C583.008 652.819 579.427 638.984 572.266 626.777C565.104 614.408 555.501 604.072 543.457 595.771C531.413 587.471 517.578 579.821 501.953 572.822C486.328 565.824 469.889 559.232 452.637 553.047C435.384 546.699 418.132 540.189 400.879 533.516C383.626 526.68 367.188 518.623 351.562 509.346C335.938 499.906 322.103 489.408 310.059 477.852C298.014 466.133 288.411 451.566 281.25 434.15C274.089 416.572 270.508 396.96 270.508 375.312C270.508 348.62 275.798 323.88 286.377 301.094C297.119 278.145 312.093 258.532 331.299 242.256C350.667 225.817 374.43 212.959 402.588 203.682C430.745 194.404 461.589 189.766 495.117 189.766C508.138 189.766 521.647 190.661 535.645 192.451C549.805 194.079 564.535 196.927 579.834 200.996C595.296 205.065 610.107 210.029 624.268 215.889C638.428 221.748 651.937 229.235 664.795 238.35C677.816 247.301 689.046 257.311 698.486 268.379C707.926 279.447 715.413 292.467 720.947 307.441C726.644 322.415 729.492 338.529 729.492 355.781C729.492 377.428 721.842 395.902 706.543 411.201C691.406 426.338 673.014 433.906 651.367 433.906C629.72 433.906 611.247 426.338 595.947 411.201C580.811 395.902 573.242 377.428 573.242 355.781C573.242 341.296 576.904 328.031 584.229 315.986C591.553 303.779 601.237 294.258 613.281 287.422C591.634 274.401 562.012 267.891 524.414 267.891C490.072 267.891 465.169 273.262 449.707 284.004C434.408 294.583 426.758 311.999 426.758 336.25Z" fill="#1C1C1E"/>
</g>
<defs>
<clipPath id="clip0_162_10">
<rect width="1000" height="1000"/>
</clipPath>
</defs>
</svg>
